# Blender v2.83.4 OBJ File: ''
# www.blender.org
mtllib bigWoodCrate.mtl
o Cube.001
v -2.355663 -2.355662 -3.532825
v 2.355663 -2.355662 -3.532825
v 2.355663 2.355663 -3.532825
v -2.355663 2.355663 -3.532825
v 2.355663 -2.355663 3.532825
v 2.355663 2.355662 3.532825
v -2.355663 -2.355663 3.532825
v -2.355663 2.355662 3.532825
v -2.500000 -2.499999 -3.749290
v -2.500000 2.500001 -3.749290
v 2.500000 2.500001 -3.749290
v 2.500000 -2.499999 -3.749290
v 2.500000 2.499999 3.749290
v 2.500000 -2.500001 3.749290
v -2.500000 -2.500001 3.749290
v -2.500000 -2.500001 3.749290
v -2.500000 2.499999 3.749290
v -2.500000 2.500001 -3.749290
v -2.500000 -2.499999 -3.749290
v -2.500000 2.499999 3.749290
vt -0.009232 -0.518464
vt -0.009232 0.500000
vt 1.009232 0.500000
vt 1.009232 -0.518464
vt -0.009232 1.518464
vt 1.009232 1.518464
vt -1.027696 0.500000
vt -1.027696 1.518464
vt -0.009232 -1.536928
vt 1.009232 -1.536928
vt -0.009232 2.536928
vt 1.009232 2.536928
vt 2.027696 1.518464
vt 2.027696 0.500000
vt -0.017169 -0.417929
vt 1.001295 -0.417929
vt 1.009232 0.420000
vt -0.009232 0.420000
vt -0.009232 0.500000
vt 1.009232 0.500000
vt 1.009232 1.518464
vt -0.009232 1.518464
vt -1.027696 0.500000
vt -1.027696 1.518464
vt -0.009232 -1.536928
vt 1.009232 -1.536928
vt 1.009232 -0.518464
vt -0.009232 -0.518464
vt -0.012565 1.671798
vt 1.005899 1.671798
vt 1.005899 2.506928
vt -0.012565 2.506928
vt 2.027696 0.500000
vt 2.027696 1.518464
vn 0.0000 -0.0000 1.0000
vn -1.0000 0.0000 0.0000
vn 0.0000 1.0000 0.0000
vn 1.0000 0.0000 0.0000
vn 0.0000 0.0000 -1.0000
vn 0.0000 -1.0000 -0.0000
usemtl Material.001
s 1
f 1/1/1 2/2/1 3/3/1 4/4/1
f 2/2/2 5/5/2 6/6/2 3/3/2
f 1/7/3 7/8/3 5/5/3 2/2/3
f 7/9/4 1/1/4 4/4/4 8/10/4
f 5/5/5 7/11/5 8/12/5 6/6/5
f 3/3/6 6/6/6 8/13/6 4/14/6
f 9/15/5 10/16/5 11/17/5 12/18/5
f 12/19/4 11/20/4 13/21/4 14/22/4
f 9/23/6 12/19/6 14/22/6 15/24/6
f 16/25/2 17/26/2 18/27/2 19/28/2
f 14/29/1 13/30/1 20/31/1 15/32/1
f 11/20/3 10/33/3 20/34/3 13/21/3
