# Blender v2.83.4 OBJ File: ''
# www.blender.org
mtllib playground.mtl
o Cube.001
v 29.999971 -1.794290 29.999971
v 29.999971 2.441755 29.999971
v -29.999971 2.441755 29.999971
v -29.999971 -1.794290 29.999971
v -29.999971 2.441765 -29.999971
v -29.999971 -1.794280 -29.999971
v 29.999971 -1.794280 -29.999971
v 29.999971 2.441765 -29.999971
v 29.711296 -1.505615 29.711296
v -29.711296 -1.505615 29.711296
v -29.646429 2.441755 29.646429
v 29.646429 2.441755 29.646429
v -29.711296 -1.505606 -29.711296
v -29.646429 2.441764 -29.646429
v 29.711296 -1.505606 -29.711296
v 29.646429 2.441764 -29.646429
vt 0.624514 3.976075
vt 1.612477 3.976075
vt 1.612477 7.937451
vt 0.624514 7.937451
vt 0.624514 -7.908058
vt 1.612477 -7.908058
vt 1.612477 -3.946681
vt 0.624514 -3.946681
vt 0.004656 0.014697
vt 0.995000 0.014697
vt 0.995000 1.005041
vt 0.004656 1.005041
vt 0.624514 0.014698
vt 1.612477 0.014698
vt 0.134168 2.024041
vt 0.134168 9.917609
vt 2.102821 9.917609
vt 2.102821 2.024041
vt 0.124816 -9.897592
vt 0.124816 -1.929022
vt 2.112172 -1.929022
vt 2.112172 -9.897592
vt 0.117852 -2.002767
vt 0.117852 6.021662
vt 2.119140 6.021662
vt 2.119140 -2.002767
vt 0.144800 -5.856095
vt 0.144800 1.952237
vt 2.092192 1.952237
vt 2.092192 -5.856095
vt 1.241991 1.995385
vt 1.241991 1.005041
vt 1.241991 1.005041
vt 1.241991 1.995385
vt 1.241991 0.014697
vt 1.241991 0.014697
vt 1.241991 -0.975648
vt 1.241991 -1.965992
vt 1.241991 -1.965992
vt 1.241991 -0.975648
vt -11.048264 -11.038221
vt -11.048264 12.097960
vt 12.087919 12.097960
vt 12.087919 -11.038221
vn 0.0000 0.0000 1.0000
vn -1.0000 0.0000 0.0000
vn 0.0000 -1.0000 -0.0000
vn 1.0000 0.0000 0.0000
vn 0.0000 0.0000 -1.0000
vn 0.0000 -0.0164 -0.9999
vn 0.9999 -0.0164 -0.0000
vn -0.9999 -0.0164 -0.0000
vn 0.0000 -0.0164 0.9999
vn 0.0000 1.0000 0.0000
usemtl Wall
s 1
f 1/1/1 2/2/1 3/3/1 4/4/1
f 4/5/2 3/6/2 5/7/2 6/8/2
f 6/9/3 7/10/3 1/11/3 4/12/3
f 7/13/4 8/14/4 2/2/4 1/1/4
f 6/8/5 5/7/5 8/14/5 7/13/5
f 9/15/6 10/16/6 11/17/6 12/18/6
f 10/19/7 13/20/7 14/21/7 11/22/7
f 15/23/8 9/24/8 12/25/8 16/26/8
f 13/27/9 15/28/9 16/29/9 14/30/9
f 3/31/10 2/32/10 12/33/10 11/34/10
f 2/32/10 8/35/10 16/36/10 12/33/10
f 5/37/10 3/38/10 11/39/10 14/40/10
f 8/35/10 5/37/10 14/40/10 16/36/10
usemtl Floor
f 13/41/10 10/42/10 9/43/10 15/44/10
