# Blender v2.83.4 OBJ File: 'plane.blend'
# www.blender.org
mtllib playground.mtl
o Cube
v 30.000000 2.441762 -30.000000
v 30.000000 -1.794287 -30.000000
v 30.000000 2.441762 30.000000
v 30.000000 -1.794287 30.000000
v -30.000000 2.441762 -30.000000
v -30.000000 -1.794287 -30.000000
v -30.000000 2.441762 30.000000
v -30.000000 -1.794287 30.000000
v 29.646458 2.441762 -29.646458
v 29.711325 -1.505612 -29.711325
v 29.646458 2.441762 29.646458
v 29.711325 -1.505612 29.711325
v -29.646458 2.441762 -29.646458
v -29.711325 -1.505612 -29.711325
v -29.646458 2.441762 29.646458
v -29.711325 -1.505612 29.711325
vt 0.995000 1.005041
vt 1.241991 1.005041
vt 1.241991 1.995385
vt 0.995000 1.995385
vt 0.995000 -1.965992
vt 1.241991 -1.965992
vt 1.241991 -0.975648
vt 0.995000 -0.975648
vt 0.004656 0.014697
vt 0.995000 0.014697
vt 0.004656 1.005041
vt 1.241991 0.014697
vt 0.872414 0.513517
vt 0.872414 2.486909
vt 1.364577 2.486909
vt 1.364577 0.513517
vt 0.822149 -2.659061
vt 0.822149 -0.282579
vt 1.414842 -0.282579
vt 1.414842 -2.659061
vt 0.868335 -0.493185
vt 0.868335 1.512922
vt 1.368657 1.512922
vt 1.368657 -0.493185
vt 0.875072 -1.456517
vt 0.875072 0.495566
vt 1.361920 0.495566
vt 1.361920 -1.456517
vt 1.241991 1.005041
vt 1.241991 1.995385
vt 1.241991 0.014697
vt 1.241991 -1.965992
vt 1.241991 -0.975648
vt -11.048264 -11.038221
vt -11.048264 12.097960
vt 12.087919 12.097960
vt 12.087919 -11.038221
vn 0.0000 0.0000 1.0000
vn -1.0000 0.0000 0.0000
vn 0.0000 -1.0000 0.0000
vn 1.0000 0.0000 0.0000
vn 0.0000 0.0000 -1.0000
vn 0.0000 -0.0164 -0.9999
vn 0.9999 -0.0164 0.0000
vn -0.9999 -0.0164 0.0000
vn 0.0000 -0.0164 0.9999
vn 0.0000 1.0000 0.0000
usemtl Wall
s off
f 4/1/1 3/2/1 7/3/1 8/4/1
f 8/5/2 7/6/2 5/7/2 6/8/2
f 6/9/3 2/10/3 4/1/3 8/11/3
f 2/10/4 1/12/4 3/2/4 4/1/4
f 6/8/5 5/7/5 1/12/5 2/10/5
f 12/13/6 16/14/6 15/15/6 11/16/6
f 16/17/7 14/18/7 13/19/7 15/20/7
f 10/21/8 12/22/8 11/23/8 9/24/8
f 14/25/9 10/26/9 9/27/9 13/28/9
f 7/3/10 3/2/10 11/29/10 15/30/10
f 3/2/10 1/12/10 9/31/10 11/29/10
f 5/7/10 7/6/10 15/32/10 13/33/10
f 1/12/10 5/7/10 13/33/10 9/31/10
usemtl Floor
f 14/34/10 16/35/10 12/36/10 10/37/10
