# Blender v2.83.4 OBJ File: ''
# www.blender.org
mtllib playground.mtl
o Cube
v 10.000000 1.906462 -10.000000
v 10.000000 -0.093538 -10.000000
v 10.000000 1.906462 10.000000
v 10.000000 -0.093538 10.000000
v -10.000000 1.906462 -10.000000
v -10.000000 -0.093538 -10.000000
v -10.000000 1.906462 10.000000
v -10.000000 -0.093538 10.000000
v 9.531079 1.906462 9.531079
v -9.531079 1.906462 9.531079
v 9.531079 1.906462 -9.531079
v -9.531079 1.906462 -9.531079
v 9.531079 -0.006817 9.531079
v -9.531079 -0.006817 9.531079
v 9.531079 -0.006817 -9.531079
v -9.531079 -0.006817 -9.531079
vt -5.376046 -4.749999
vt 5.888050 -4.750000
vt 5.888051 6.249999
vt -5.376045 6.250000
vt 5.635958 5.003816
vt -4.123951 5.003817
vt -4.123953 -4.527262
vt 5.635956 -4.527263
vt -0.051093 0.838251
vt 8.083272 0.829591
vt 7.944539 0.962320
vt 0.102350 0.953660
vt 0.002670 0.994303
vt 0.002670 0.000623
vt 8.002670 0.000623
vt 8.002670 0.994303
vt 8.002670 -0.000886
vt 8.002670 0.992795
vt 0.002670 0.992795
vt 0.002670 -0.000886
vt 8.002670 0.005069
vt 8.002670 0.993827
vt 0.002670 0.993828
vt 0.002670 0.005069
vt 8.002670 0.003560
vt 8.002670 0.989858
vt 0.002670 0.989858
vt 0.002670 0.003560
vt 7.477310 0.993553
vt 0.000756 0.993553
vt 0.000756 0.002054
vt 7.477310 0.002054
vt 8.083953 0.953956
vt -0.059621 0.962894
vt 0.076547 0.834981
vt 7.932972 0.843918
vt -0.056028 0.824890
vt 8.080995 0.815131
vt 7.954448 0.971982
vt 0.091470 0.962223
vt 8.071489 0.962066
vt -0.043623 0.983642
vt 0.057213 0.809222
vt 7.918654 0.830797
vt 7.476685 0.996654
vt 0.000130 0.996654
vt 0.000130 0.002054
vt 7.476685 0.002054
vt -0.003596 0.002054
vt 7.472958 0.002054
vt 7.472958 0.996654
vt -0.003596 0.996654
vt 7.472332 0.996654
vt -0.004222 0.996654
vt -0.004222 -0.001047
vt 7.472332 -0.001047
vn 0.0000 -1.0000 0.0000
vn 0.0000 1.0000 0.0000
vn 0.0000 0.0000 1.0000
vn -1.0000 0.0000 0.0000
vn 1.0000 0.0000 0.0000
vn 0.0000 0.0000 -1.0000
usemtl Floor
s off
f 6/1/1 2/2/1 4/3/1 8/4/1
f 15/5/2 16/6/2 14/7/2 13/8/2
usemtl Wall
f 3/9/2 1/10/2 11/11/2 9/12/2
f 4/13/3 3/14/3 7/15/3 8/16/3
f 8/17/4 7/18/4 5/19/4 6/20/4
f 2/21/5 1/22/5 3/23/5 4/24/5
f 6/25/6 5/26/6 1/27/6 2/28/6
f 12/29/5 10/30/5 14/31/5 16/32/5
f 1/33/2 5/34/2 12/35/2 11/36/2
f 7/37/2 3/38/2 9/39/2 10/40/2
f 5/41/2 7/42/2 10/43/2 12/44/2
f 10/45/6 9/46/6 13/47/6 14/48/6
f 11/49/3 12/50/3 16/51/3 15/52/3
f 9/53/4 11/54/4 15/55/4 13/56/4
