# Blender v2.83.4 OBJ File: 'window.blend'
# www.blender.org
mtllib window.mtl
o Plane_Plane.001
v 0.000000 1.000000 1.000000
v 0.000000 -1.000000 1.000000
v 0.000000 1.000000 -1.000000
v 0.000000 -1.000000 -1.000000
v 0.000000 0.902694 -0.750000
v 0.000000 0.902694 0.750000
v 0.000000 -0.597306 0.750000
v 0.000000 -0.597306 -0.750000
v 0.000000 1.000000 -1.000000
v 0.000000 1.000000 1.000000
v 0.000000 -1.000000 1.000000
v 0.000000 -1.000000 -1.000000
v 0.000000 0.902694 -0.750000
v 0.000000 0.902694 0.750000
v 0.000000 -0.597306 0.750000
v 0.000000 -0.597306 -0.750000
v 0.000000 1.000000 -1.000000
v 0.000000 1.000000 1.000000
v 0.000000 -1.000000 1.000000
v 0.000000 -1.000000 -1.000000
v 0.000000 0.902694 -0.750000
v 0.000000 0.902694 0.750000
v 0.000000 -0.597306 0.750000
v 0.000000 -0.597306 -0.750000
v 0.100000 1.000000 -1.000000
v 0.100000 1.000000 1.000000
v 0.100000 -1.000000 1.000000
v 0.100000 -1.000000 -1.000000
v 0.100000 0.902694 -0.750000
v 0.100000 0.902694 0.750000
v 0.100000 -0.597306 0.750000
v 0.100000 -0.597306 -0.750000
v 0.100000 -1.000000 1.000000
v 0.100000 -1.000000 -1.000000
v 0.100000 0.902694 0.750000
v 0.100000 0.902694 -0.750000
v 0.100000 1.000000 -1.000000
v 0.100000 1.000000 1.000000
v 0.100000 -0.597306 0.750000
v 0.100000 -0.597306 -0.750000
v 0.100000 1.000000 1.000000
v 0.100000 -1.000000 1.000000
v 0.100000 -1.000000 -1.000000
v 0.100000 1.000000 -1.000000
v 0.100000 0.902694 -0.750000
v 0.100000 0.902694 0.750000
v 0.100000 -0.597306 0.750000
v 0.100000 -0.597306 -0.750000
v 0.050000 -0.597306 0.750000
v 0.050000 0.902694 0.750000
v 0.050000 0.902694 -0.750000
v 0.050000 -0.597306 -0.750000
v 0.050000 -0.597306 -0.750000
v 0.050000 -0.597306 0.750000
v 0.050000 0.902694 -0.750000
v 0.050000 0.902694 0.750000
vt 0.000000 1.000000
vt 0.000000 1.000000
vt 1.000000 1.000000
vt 1.000000 1.000000
vt 1.000000 0.000000
vt 1.000000 0.000000
vt 1.000000 1.000000
vt 1.000000 1.000000
vt 0.000000 0.000000
vt 0.000000 0.000000
vt 1.000000 0.000000
vt 1.000000 1.000000
vt 0.000000 1.000000
vt 0.000000 1.000000
vt 1.000000 0.000000
vt 1.000000 0.000000
vt 0.000000 0.000000
vt 0.000000 0.000000
vt 0.000000 1.000000
vt 0.000000 0.000000
vt 0.000000 1.000000
vt 1.000000 1.000000
vt 1.000000 0.000000
vt 0.000000 0.000000
vt 0.000000 1.000000
vt 1.000000 1.000000
vt 1.000000 1.000000
vt 0.000000 1.000000
vt 0.000000 1.000000
vt 0.000000 0.000000
vt 0.000000 0.000000
vt 0.000000 1.000000
vt 0.000000 0.000000
vt 0.000000 0.000000
vt 0.000000 1.000000
vt 0.000000 0.000000
vt 1.000000 0.000000
vt 1.000000 0.000000
vt 1.000000 1.000000
vt 1.000000 0.000000
vt 1.000000 0.000000
vt 0.000000 0.000000
vt 1.000000 1.000000
vt 0.000000 1.000000
vt 1.000000 1.000000
vt 1.000000 1.000000
vt 1.000000 0.000000
vt 1.000000 0.000000
vt 0.000100 0.999900
vt 0.999900 0.999900
vt 0.999900 0.000100
vt 0.000100 0.000100
vt 0.000100 0.999900
vt 0.000100 0.000100
vt 0.999900 0.000100
vt 0.999900 0.999900
vt 0.140916 0.001392
vt 0.140924 0.001390
vt 0.140359 0.000816
vt 0.140378 0.000762
vt 0.140396 0.001103
vt 0.140410 0.001056
vt 0.140877 0.001354
vt 0.140893 0.001343
vt 0.140423 0.001009
vt 0.140860 0.001365
vt 0.140753 0.001846
vt 0.140734 0.001837
vt 0.140317 0.001878
vt 0.140295 0.001833
vt 0.140772 0.001856
vt 0.140274 0.001788
vt 0.999899 0.999900
vt 0.874924 0.951256
vt 0.874924 0.201407
vt 0.999899 0.000100
vt 0.125075 0.201408
vt 0.000100 0.000101
vt 0.000101 0.999900
vt 0.125076 0.951257
vt 0.140931 0.001387
vt 0.140340 0.000871
vt 0.140266 0.002234
vt 0.140732 0.001947
vt 0.140720 0.001945
vt 0.140296 0.002294
vt 0.503011 0.583173
vt 0.503085 0.579819
vt 0.140335 0.000320
vt 0.140283 0.002850
vt 0.000100 0.999898
vt 0.000100 0.000100
vt 0.125075 0.201407
vt 0.125075 0.951255
vt 0.999900 0.000100
vt 0.874925 0.201407
vt 0.999899 0.999900
vt 0.874924 0.951256
vt 0.140707 0.001942
vt 0.140326 0.002354
vt 0.140330 0.000595
vt 0.140302 0.002301
vt 0.739508 0.996840
vt -0.003108 0.996840
vt -0.003108 0.963509
vt -0.003108 0.930177
vt 0.739508 0.930177
vt 0.739508 0.963509
vt -0.000783 0.929402
vt 0.744934 0.929402
vt 0.744933 0.962734
vt 0.744933 0.996065
vt -0.000783 0.996065
vt -0.000783 0.962733
vt 0.050021 0.000022
vt 0.050021 0.999978
vt 0.000023 0.999978
vt 0.000022 0.000022
vt 0.050021 0.000022
vt 0.050021 0.999978
vt 0.066689 0.243407
vt 0.066689 0.999974
vt 0.033357 0.999974
vt 0.000026 0.999974
vt 0.000026 0.243407
vt 0.033358 0.243407
vt 0.000026 0.999974
vt -0.007787 0.244166
vt 0.025545 0.244166
vt 0.058877 0.244166
vt 0.066689 0.999974
vt 0.033357 0.999974
vt 0.000023 0.999978
vt 0.000022 0.000022
vt 0.050020 0.000022
vt 0.050020 0.999978
vt 0.000023 0.999978
vt 0.000022 0.000022
vt 0.050020 0.000022
vt 0.050020 0.999978
vn 0.0000 0.0000 1.0000
vn -1.0000 0.0000 0.0000
vn 1.0000 0.0000 0.0000
vn 0.0000 1.0000 0.0000
vn 0.0000 -1.0000 0.0000
vn 0.0000 0.0000 -1.0000
usemtl Window
s off
f 5/1/1 13/2/1 16/3/1 8/4/1
f 2/5/1 11/6/1 12/7/1 4/8/1
f 10/9/1 18/10/1 19/11/1 11/6/1
f 12/7/1 20/12/1 17/13/1 9/14/1
f 7/15/1 15/16/1 14/17/1 6/18/1
f 4/8/1 12/7/1 9/14/1 3/19/1
f 1/20/1 10/9/1 11/6/1 2/5/1
f 11/6/1 19/11/1 20/12/1 12/7/1
f 13/2/1 21/21/1 24/22/1 16/3/1
f 15/16/1 23/23/1 22/24/1 14/17/1
f 29/25/1 32/26/1 40/27/1 36/28/1
f 25/29/1 26/30/1 38/31/1 37/32/1
f 30/33/1 29/25/1 36/28/1 35/34/1
f 35/34/1 36/28/1 45/35/1 46/36/1
f 40/27/1 39/37/1 47/38/1 48/39/1
f 38/31/1 33/40/1 42/41/1 41/42/1
f 34/43/1 37/32/1 44/44/1 43/45/1
f 28/46/1 25/29/1 37/32/1 34/43/1
f 26/30/1 27/47/1 33/40/1 38/31/1
f 32/26/1 31/48/1 39/37/1 40/27/1
f 37/32/1 38/31/1 41/42/1 44/44/1
f 36/28/1 40/27/1 48/39/1 45/35/1
f 49/49/2 50/50/2 51/51/2 52/52/2
f 54/53/3 53/54/3 55/55/3 56/56/3
f 51/51/1 50/50/1 56/56/1 55/55/1
f 49/49/1 52/52/1 53/54/1 54/53/1
f 50/50/1 49/49/1 54/53/1 56/56/1
f 52/52/1 51/51/1 55/55/1 53/54/1
usemtl Wall
f 3/57/1 9/58/1 10/59/1 1/60/1
f 6/61/1 14/62/1 13/63/1 5/64/1
f 14/62/1 22/65/1 21/66/1 13/63/1
f 16/67/1 24/68/1 23/69/1 15/70/1
f 8/71/1 16/67/1 15/70/1 7/72/1
f 18/73/2 22/74/2 23/75/2 19/76/2
f 19/76/2 23/75/2 24/77/2 20/78/2
f 17/79/2 21/80/2 22/74/2 18/73/2
f 20/78/2 24/77/2 21/80/2 17/79/2
f 9/58/1 17/81/1 18/82/1 10/59/1
f 27/83/1 28/84/1 34/85/1 33/86/1
f 31/87/1 30/88/1 35/89/1 39/90/1
f 41/91/3 42/92/3 47/93/3 46/94/3
f 42/92/3 43/95/3 48/96/3 47/93/3
f 44/97/3 41/91/3 46/94/3 45/98/3
f 43/95/3 44/97/3 45/98/3 48/96/3
f 33/86/1 34/85/1 43/99/1 42/100/1
f 39/90/1 35/89/1 46/101/1 47/102/1
f 8/103/4 7/104/4 49/105/4 31/106/4 32/107/4 52/108/4
f 6/109/5 5/110/5 51/111/5 29/112/5 30/113/5 50/114/5
f 2/115/5 4/116/5 28/117/5 27/118/5
f 3/19/4 1/20/4 26/119/4 25/120/4
f 5/121/1 8/122/1 52/123/1 32/124/1 29/125/1 51/126/1
f 7/127/6 6/128/6 50/129/6 30/130/6 31/131/6 49/132/6
f 4/133/6 3/134/6 25/135/6 28/136/6
f 1/137/1 2/138/1 27/139/1 26/140/1
