# Blender v2.83.4 OBJ File: ''
# www.blender.org
mtllib window.mtl
o Cube_Cube.001
v -0.800000 0.000000 0.100000
v -0.800000 2.000000 0.100000
v -0.800000 0.000000 -0.100000
v -0.800000 2.000000 -0.100000
v 0.800000 0.000000 0.100000
v 0.800000 2.000000 0.100000
v 0.800000 0.000000 -0.100000
v 0.800000 2.000000 -0.100000
v -0.800000 0.500000 0.100000
v -0.800000 0.500000 -0.100000
v 0.800000 0.500000 -0.100000
v 0.800000 0.500000 0.100000
v -0.680000 0.612500 0.100000
v -0.680000 1.887500 0.100000
v 0.680000 1.887500 0.100000
v 0.680000 0.612500 0.100000
v -0.680000 1.887500 -0.100000
v 0.680000 1.887500 -0.100000
v -0.680000 0.612500 -0.100000
v 0.680000 0.612500 -0.100000
v -0.680000 0.612500 0.010000
v -0.680000 1.887500 0.010000
v 0.680000 1.887500 0.010000
v 0.680000 0.612500 0.010000
v -0.680000 1.887500 -0.010000
v 0.680000 1.887500 -0.010000
v -0.680000 0.612500 -0.010000
v 0.680000 0.612500 -0.010000
vt 0.994153 1.000000
vt 0.000000 1.000000
vt 0.000000 0.000000
vt 0.994153 0.000000
vt 0.000000 1.000000
vt 0.000097 0.000097
vt 0.999903 0.000097
vt 1.000000 1.000000
vt 0.100026 0.250015
vt 0.100026 0.999968
vt 0.000032 0.999968
vt 0.000032 0.250015
vt 0.764254 0.243572
vt 0.764255 0.993438
vt 0.706529 0.937198
vt 0.706529 0.299812
vt 0.100026 0.250015
vt 0.100026 0.999968
vt 0.000032 0.999968
vt 0.000032 0.250015
vt 0.764471 0.248493
vt 0.764471 0.998359
vt 0.707083 0.942120
vt 0.707083 0.304733
vt 0.099017 0.437504
vt 0.879937 0.437504
vt 0.879937 0.562496
vt 0.099017 0.562495
vt 0.766741 0.562495
vt -0.001875 0.562496
vt -0.001875 0.437504
vt 0.766741 0.437504
vt 0.764471 -0.001462
vt -0.000706 0.248493
vt -0.000706 -0.001462
vt 0.100026 0.000032
vt 0.000032 0.000032
vt 0.764254 -0.006383
vt -0.005411 0.243572
vt -0.005411 -0.006383
vt 0.100026 0.000032
vt 0.000032 0.000032
vt 0.000027 0.886777
vt 0.000027 0.255948
vt 0.070612 0.255948
vt 0.070612 0.886777
vt -0.000706 0.998359
vt 0.056682 0.942119
vt 0.056682 0.304733
vt 0.070612 0.258409
vt 0.070612 0.894160
vt 0.000027 0.894160
vt 0.000027 0.258409
vt 0.052314 0.299812
vt -0.005411 0.993438
vt 0.052314 0.937198
vt 0.127580 0.872420
vt 0.127581 0.248973
vt 0.198165 0.248973
vt 0.198165 0.872420
vt 0.942722 0.566222
vt 0.294717 0.566222
vt 0.294717 0.500052
vt 0.942722 0.500051
vt 0.967330 0.566222
vt 0.319324 0.566221
vt 0.319324 0.500051
vt 0.967330 0.500051
vt 0.164295 0.433778
vt 0.822143 0.433778
vt 0.822143 0.499948
vt 0.164295 0.499949
vt 0.817222 0.499948
vt 0.169217 0.499948
vt 0.169217 0.433778
vt 0.817222 0.433778
vt 0.120605 0.889238
vt 0.120606 0.262223
vt 0.191190 0.262223
vt 0.191190 0.889238
vn 0.0000 0.0000 1.0000
vn 0.0000 0.0000 -1.0000
vn -1.0000 0.0000 0.0000
vn 1.0000 0.0000 0.0000
vn 0.0000 -1.0000 0.0000
vn 0.0000 1.0000 0.0000
usemtl Window
s off
f 24/1/1 23/2/1 22/3/1 21/4/1
f 27/5/2 25/6/2 26/7/2 28/8/2
usemtl Brick
f 9/9/3 2/10/3 4/11/3 10/12/3
f 10/13/2 4/14/2 17/15/2 19/16/2
f 11/17/4 8/18/4 6/19/4 12/20/4
f 12/21/1 6/22/1 15/23/1 16/24/1
f 3/25/5 7/26/5 5/27/5 1/28/5
f 8/29/6 4/30/6 2/31/6 6/32/6
f 5/33/1 12/21/1 9/34/1 1/35/1
f 7/36/4 11/17/4 12/20/4 5/37/4
f 3/38/2 10/13/2 11/39/2 7/40/2
f 1/41/3 9/9/3 10/12/3 3/42/3
f 16/43/3 15/44/3 23/45/3 24/46/3
f 6/22/1 2/47/1 14/48/1 15/23/1
f 9/34/1 12/21/1 16/24/1 13/49/1
f 2/47/1 9/34/1 13/49/1 14/48/1
f 18/50/3 20/51/3 28/52/3 26/53/3
f 11/39/2 10/13/2 19/16/2 20/54/2
f 4/14/2 8/55/2 18/56/2 17/15/2
f 8/55/2 11/39/2 20/54/2 18/56/2
f 14/57/4 13/58/4 21/59/4 22/60/4
f 13/61/6 16/62/6 24/63/6 21/64/6
f 15/65/5 14/66/5 22/67/5 23/68/5
f 17/69/5 18/70/5 26/71/5 25/72/5
f 20/73/6 19/74/6 27/75/6 28/76/6
f 19/77/4 17/78/4 25/79/4 27/80/4
