ply
format ascii 1.0
comment Created by Blender 2.83.4 - www.blender.org, source file: ''
element vertex 8
property float x
property float y
property float z
property uchar red
property uchar green
property uchar blue
property uchar alpha
element face 12
property list uchar uint vertex_indices
end_header
-1.000000 1.000000 1.000000 255 220 16 255
1.000000 -1.000000 1.000000 16 2 255 255
1.000000 1.000000 1.000000 255 0 193 255
-1.000000 -1.000000 -1.000000 158 16 255 255
1.000000 -1.000000 -1.000000 20 255 199 255
-1.000000 -1.000000 1.000000 18 255 0 255
-1.000000 1.000000 -1.000000 255 0 6 255
1.000000 1.000000 -1.000000 255 117 16 255
3 0 1 2
3 1 3 4
3 5 6 3
3 7 3 6
3 2 4 7
3 7 0 2
3 0 5 1
3 1 5 3
3 5 0 6
3 7 4 3
3 2 1 4
3 7 6 0
